<mxfile host="app.diagrams.net" agent="Mozilla/5.0 (Windows NT 10.0; Win64; x64) AppleWebKit/537.36 (KHTML, like Gecko) Chrome/126.0.0.0 Safari/537.36" version="24.8.4">
  <diagram id="R2lEEEUBdFMjLlhIrx00" name="Page-1">
    <mxGraphModel dx="880" dy="468" grid="0" gridSize="10" guides="1" tooltips="1" connect="1" arrows="1" fold="1" page="1" pageScale="1" pageWidth="850" pageHeight="1100" math="0" shadow="0" extFonts="Permanent Marker^https://fonts.googleapis.com/css?family=Permanent+Marker">
      <root>
        <mxCell id="0" />
        <mxCell id="1" parent="0" />
        <mxCell id="Ht6bJsP6CyKfND0dMKXF-1" value="Покупатель" style="rounded=0;whiteSpace=wrap;html=1;" parent="1" vertex="1">
          <mxGeometry x="325" y="215" width="120" height="60" as="geometry" />
        </mxCell>
        <mxCell id="s-PLalnUDHH3pO70CZnb-1" value="Лучшие акции" style="rounded=0;whiteSpace=wrap;html=1;" parent="1" vertex="1">
          <mxGeometry x="106" y="275" width="120" height="60" as="geometry" />
        </mxCell>
        <mxCell id="s-PLalnUDHH3pO70CZnb-5" value="Товары" style="rounded=0;whiteSpace=wrap;html=1;" parent="1" vertex="1">
          <mxGeometry x="320" y="390" width="120" height="60" as="geometry" />
        </mxCell>
        <mxCell id="s-PLalnUDHH3pO70CZnb-10" value="1. Название акции&lt;div&gt;2. Описание акции&lt;/div&gt;&lt;div&gt;3. Срок действия акции&lt;/div&gt;" style="text;html=1;align=left;verticalAlign=middle;resizable=0;points=[];autosize=1;strokeColor=none;fillColor=none;" parent="1" vertex="1">
          <mxGeometry x="106" y="330" width="150" height="60" as="geometry" />
        </mxCell>
        <mxCell id="s-PLalnUDHH3pO70CZnb-22" value="1. Фамилия&lt;div&gt;2. Имя&lt;/div&gt;&lt;div&gt;3. Номер телефона&lt;/div&gt;&lt;div&gt;4. Электронная почта&lt;/div&gt;&lt;div&gt;5. Персональная скидка&lt;/div&gt;" style="text;html=1;align=left;verticalAlign=middle;resizable=0;points=[];autosize=1;strokeColor=none;fillColor=none;" parent="1" vertex="1">
          <mxGeometry x="325" y="267" width="160" height="90" as="geometry" />
        </mxCell>
        <mxCell id="s-PLalnUDHH3pO70CZnb-23" value="1. Название товара&lt;div&gt;2. Фото товара&lt;/div&gt;&lt;div&gt;3. Цена товара&lt;/div&gt;&lt;div&gt;4. Цвет товара&lt;/div&gt;&lt;div&gt;5. Размер товара&lt;/div&gt;&lt;div&gt;6. Классификация товара по полу&lt;/div&gt;&lt;div&gt;7. Классификация товара по категории&lt;/div&gt;&lt;div&gt;8. Классификация товара по подкатегории&lt;/div&gt;" style="text;html=1;align=left;verticalAlign=middle;resizable=0;points=[];autosize=1;strokeColor=none;fillColor=none;" parent="1" vertex="1">
          <mxGeometry x="320" y="446" width="256" height="127" as="geometry" />
        </mxCell>
        <mxCell id="ze5dJx4Fh_gwwAG59Pkr-1" value="Корзина" style="rounded=0;whiteSpace=wrap;html=1;" parent="1" vertex="1">
          <mxGeometry x="576" y="278" width="120" height="60" as="geometry" />
        </mxCell>
        <mxCell id="ze5dJx4Fh_gwwAG59Pkr-8" value="1. Статус корзины&lt;div&gt;2. Способ оплаты&lt;/div&gt;&lt;div&gt;3. Способ доставки&lt;/div&gt;&lt;div&gt;4. Количество товаров&lt;/div&gt;&lt;div&gt;5. Сумма заказа&lt;/div&gt;" style="text;html=1;align=left;verticalAlign=middle;resizable=0;points=[];autosize=1;strokeColor=none;fillColor=none;" parent="1" vertex="1">
          <mxGeometry x="576" y="334" width="144" height="84" as="geometry" />
        </mxCell>
        <mxCell id="ze5dJx4Fh_gwwAG59Pkr-11" value="" style="endArrow=classic;html=1;rounded=0;exitX=1;exitY=0.867;exitDx=0;exitDy=0;exitPerimeter=0;entryX=1;entryY=0.5;entryDx=0;entryDy=0;edgeStyle=orthogonalEdgeStyle;" parent="1" source="Ht6bJsP6CyKfND0dMKXF-1" target="s-PLalnUDHH3pO70CZnb-5" edge="1">
          <mxGeometry width="50" height="50" relative="1" as="geometry">
            <mxPoint x="520" y="440" as="sourcePoint" />
            <mxPoint x="570" y="390" as="targetPoint" />
            <Array as="points">
              <mxPoint x="500" y="267" />
              <mxPoint x="500" y="420" />
            </Array>
          </mxGeometry>
        </mxCell>
        <mxCell id="ze5dJx4Fh_gwwAG59Pkr-12" value="выбирает" style="edgeLabel;html=1;align=center;verticalAlign=middle;resizable=0;points=[];" parent="ze5dJx4Fh_gwwAG59Pkr-11" vertex="1" connectable="0">
          <mxGeometry x="-0.0242" y="-1" relative="1" as="geometry">
            <mxPoint as="offset" />
          </mxGeometry>
        </mxCell>
        <mxCell id="ptxYyNzf4dsbf-dd8TwH-2" value="" style="endArrow=classic;html=1;rounded=0;exitX=0;exitY=0.5;exitDx=0;exitDy=0;entryX=0.5;entryY=0;entryDx=0;entryDy=0;edgeStyle=orthogonalEdgeStyle;" parent="1" source="Ht6bJsP6CyKfND0dMKXF-1" target="s-PLalnUDHH3pO70CZnb-1" edge="1">
          <mxGeometry width="50" height="50" relative="1" as="geometry">
            <mxPoint x="231" y="235" as="sourcePoint" />
            <mxPoint x="281" y="185" as="targetPoint" />
          </mxGeometry>
        </mxCell>
        <mxCell id="ptxYyNzf4dsbf-dd8TwH-3" value="смотрит" style="edgeLabel;html=1;align=center;verticalAlign=middle;resizable=0;points=[];" parent="ptxYyNzf4dsbf-dd8TwH-2" vertex="1" connectable="0">
          <mxGeometry x="0.0053" y="3" relative="1" as="geometry">
            <mxPoint x="6" y="-6" as="offset" />
          </mxGeometry>
        </mxCell>
        <mxCell id="ptxYyNzf4dsbf-dd8TwH-4" value="" style="endArrow=classic;html=1;rounded=0;exitX=0;exitY=0.5;exitDx=0;exitDy=0;entryX=1;entryY=0.5;entryDx=0;entryDy=0;edgeStyle=orthogonalEdgeStyle;" parent="1" source="s-PLalnUDHH3pO70CZnb-5" target="s-PLalnUDHH3pO70CZnb-1" edge="1">
          <mxGeometry width="50" height="50" relative="1" as="geometry">
            <mxPoint x="210" y="444" as="sourcePoint" />
            <mxPoint x="260" y="394" as="targetPoint" />
          </mxGeometry>
        </mxCell>
        <mxCell id="ptxYyNzf4dsbf-dd8TwH-5" value="принадлежат" style="edgeLabel;html=1;align=center;verticalAlign=middle;resizable=0;points=[];" parent="ptxYyNzf4dsbf-dd8TwH-4" vertex="1" connectable="0">
          <mxGeometry x="-0.0431" y="-1" relative="1" as="geometry">
            <mxPoint x="2" y="-16" as="offset" />
          </mxGeometry>
        </mxCell>
        <mxCell id="ptxYyNzf4dsbf-dd8TwH-6" value="" style="endArrow=classic;html=1;rounded=0;exitX=1;exitY=0.75;exitDx=0;exitDy=0;entryX=0;entryY=0.5;entryDx=0;entryDy=0;edgeStyle=orthogonalEdgeStyle;" parent="1" source="s-PLalnUDHH3pO70CZnb-5" target="ze5dJx4Fh_gwwAG59Pkr-1" edge="1">
          <mxGeometry width="50" height="50" relative="1" as="geometry">
            <mxPoint x="654" y="479" as="sourcePoint" />
            <mxPoint x="704" y="429" as="targetPoint" />
            <Array as="points">
              <mxPoint x="543" y="435" />
              <mxPoint x="543" y="308" />
            </Array>
          </mxGeometry>
        </mxCell>
        <mxCell id="ptxYyNzf4dsbf-dd8TwH-7" value="добавляются" style="edgeLabel;html=1;align=center;verticalAlign=middle;resizable=0;points=[];" parent="ptxYyNzf4dsbf-dd8TwH-6" vertex="1" connectable="0">
          <mxGeometry x="-0.4905" y="3" relative="1" as="geometry">
            <mxPoint x="-13" y="4" as="offset" />
          </mxGeometry>
        </mxCell>
      </root>
    </mxGraphModel>
  </diagram>
</mxfile>
